<svg width="40" height="40" viewBox="0 0 40 40" fill="none" xmlns="http://www.w3.org/2000/svg">
<rect width="40" height="40" rx="20" fill="black"/>
<path fill-rule="evenodd" clip-rule="evenodd" d="M32.18 20.7777C32.18 19.915 32.1026 19.0854 31.9588 18.2891H20.5V22.9954H27.0479C26.7658 24.5162 25.9086 25.8047 24.6201 26.6675V29.7202H28.5521C30.8527 27.6021 32.18 24.483 32.18 20.7777Z" fill="#BBC8D4"/>
<path fill-rule="evenodd" clip-rule="evenodd" d="M20.5015 32.6675C23.7865 32.6675 26.5406 31.578 28.5536 29.7199L24.6216 26.6671C23.5321 27.3971 22.1385 27.8285 20.5015 27.8285C17.3326 27.8285 14.6504 25.6883 13.6937 22.8125H9.62891V25.9648C11.6309 29.9411 15.7454 32.6675 20.5015 32.6675Z" fill="#BBC8D4"/>
<path fill-rule="evenodd" clip-rule="evenodd" d="M13.6929 22.8127C13.4495 22.0827 13.3113 21.3029 13.3113 20.5011C13.3113 19.6992 13.4495 18.9194 13.6929 18.1894V15.0371H9.62808C8.80406 16.6796 8.33398 18.5378 8.33398 20.5011C8.33398 22.4643 8.80406 24.3225 9.62808 25.965L13.6929 22.8127Z" fill="#BBC8D4"/>
<path fill-rule="evenodd" clip-rule="evenodd" d="M20.5015 13.173C22.2878 13.173 23.8916 13.7869 25.1525 14.9925L28.6421 11.5028C26.535 9.53959 23.781 8.33398 20.5015 8.33398C15.7454 8.33398 11.6309 11.0604 9.62891 15.0367L13.6937 18.189C14.6504 15.3132 17.3326 13.173 20.5015 13.173Z" fill="#BBC8D4"/>
</svg>
