<svg width="1440" height="800" viewBox="0 0 1440 800" fill="none" xmlns="http://www.w3.org/2000/svg">
<g clip-path="url(#clip0_1_31618)">
<rect width="1440" height="800" fill="#DAE3EA"/>
<g opacity="0.6">
<path fill-rule="evenodd" clip-rule="evenodd" d="M769.5 361.5V438.5C769.5 444.55 764.55 449.5 758.5 449.5H681.5C675.45 449.5 670.5 444.55 670.5 438.5V361.5C670.5 355.45 675.45 350.5 681.5 350.5H758.5C764.55 350.5 769.5 355.45 769.5 361.5ZM714.501 424.805L702.951 410.89C701.796 409.515 699.706 409.57 698.661 411L684.966 428.6C683.536 430.415 684.801 433.055 687.111 433.055H753.056C755.311 433.055 756.631 430.47 755.256 428.655L735.951 402.915C734.851 401.43 732.651 401.43 731.551 402.86L714.501 424.805Z" fill="#94A3B1"/>
</g>
</g>
<defs>
<clipPath id="clip0_1_31618">
<rect width="1440" height="800" fill="white"/>
</clipPath>
</defs>
</svg>
