<svg width="132" height="132" viewBox="0 0 132 132" fill="none" xmlns="http://www.w3.org/2000/svg">
<path fill-rule="evenodd" clip-rule="evenodd" d="M115.5 27.5V104.5C115.5 110.55 110.55 115.5 104.5 115.5H27.5C21.45 115.5 16.5 110.55 16.5 104.5V27.5C16.5 21.45 21.45 16.5 27.5 16.5H104.5C110.55 16.5 115.5 21.45 115.5 27.5ZM60.5007 90.8047L48.9507 76.8897C47.7957 75.5147 45.7057 75.5697 44.6607 76.9997L30.9657 94.5997C29.5357 96.4147 30.8007 99.0547 33.1107 99.0547H99.0557C101.311 99.0547 102.631 96.4697 101.256 94.6547L81.9507 68.9147C80.8507 67.4297 78.6507 67.4297 77.5507 68.8597L60.5007 90.8047Z" fill="#94A3B1"/>
</svg>
