<svg width="18" height="18" viewBox="0 0 18 18" fill="none" xmlns="http://www.w3.org/2000/svg">
<path d="M14.3322 0.113281H3.66551C2.7228 0.114323 1.81906 0.489177 1.15254 1.15584C0.485873 1.82236 0.111014 2.7261 0.109985 3.66881V14.3355C0.111027 15.2782 0.485881 16.182 1.15254 16.8485C1.81906 17.5152 2.7228 17.89 3.66551 17.8911H14.3322C15.2749 17.8902 16.1787 17.5152 16.8454 16.8487C17.5119 16.182 17.8869 15.2782 17.8878 14.3355V3.66881C17.8869 2.7261 17.5119 1.82236 16.8454 1.15569C16.1787 0.489169 15.2749 0.114157 14.3322 0.113281V0.113281ZM16.1101 14.3355C16.1095 14.8067 15.922 15.2587 15.5888 15.592C15.2554 15.9252 14.8035 16.1127 14.3322 16.1133H3.66551C3.19423 16.1128 2.74231 15.9253 2.40897 15.592C2.07563 15.2586 1.88813 14.8067 1.88767 14.3355V3.66873C1.88812 3.19745 2.07562 2.74552 2.40897 2.41219C2.74232 2.07885 3.19423 1.89135 3.66551 1.89089H14.3322C14.8035 1.89149 15.2554 2.07899 15.5888 2.41219C15.922 2.74552 16.1095 3.19745 16.1101 3.66873V14.3355Z" fill="white"/>
<path d="M9.00032 5.03519C7.94854 5.03519 6.93989 5.45322 6.19631 6.19695C5.45268 6.94069 5.035 7.94934 5.03516 9.00112C5.03516 10.0529 5.45303 11.0616 6.19676 11.8051C6.9405 12.5487 7.94915 12.9666 9.00093 12.9664C10.0527 12.9664 11.0614 12.5486 11.8049 11.805C12.5487 11.0612 12.9664 10.0526 12.9664 9.00082C12.9652 7.94931 12.547 6.9413 11.8035 6.19783C11.0599 5.45436 10.0518 5.03622 9.00032 5.03516V5.03519ZM9.00032 11.1888C8.42013 11.1886 7.86371 10.9579 7.45346 10.5477C7.04317 10.1373 6.81284 9.58071 6.81284 9.00051C6.81299 8.42032 7.0435 7.86374 7.45391 7.45365C7.8642 7.04336 8.42074 6.81288 9.00093 6.81288C9.58113 6.81303 10.1377 7.04354 10.548 7.4538C10.9582 7.86406 11.1887 8.42062 11.1887 9.00082C11.1881 9.58101 10.9573 10.1371 10.547 10.5474C10.1367 10.9576 9.58052 11.1882 9.00028 11.1888L9.00032 11.1888Z" fill="white"/>
</svg>
