<svg width="40" height="40" viewBox="0 0 40 40" fill="none" xmlns="http://www.w3.org/2000/svg">
<rect width="40" height="40" rx="20" fill="black"/>
<path d="M31.1872 15.3613C31.1331 14.1633 30.9396 13.3437 30.6651 12.6276C30.377 11.889 29.9944 11.2585 29.3688 10.637C28.7432 10.0155 28.1175 9.6237 27.3794 9.33997C26.6638 9.06075 25.8446 8.8716 24.6473 8.81755C23.4456 8.76351 23.063 8.75 20.0114 8.75C16.9553 8.75 16.5727 8.76351 15.3755 8.81755C14.1783 8.8716 13.3591 9.06525 12.6434 9.33997C11.9008 9.6282 11.2707 10.011 10.6495 10.637C10.0284 11.263 9.63685 11.889 9.35329 12.6276C9.07873 13.3437 8.8852 14.1633 8.83119 15.3613C8.77717 16.5638 8.76367 16.9466 8.76367 20C8.76367 23.0579 8.77717 23.4408 8.83119 24.6387C8.8852 25.8367 9.07873 26.6563 9.35329 27.3724C9.64135 28.111 10.0239 28.7415 10.6495 29.363C11.2707 29.989 11.9008 30.3763 12.6389 30.66C13.3546 30.9393 14.1738 31.1284 15.371 31.1824C16.5727 31.2365 16.9553 31.25 20.0069 31.25C23.063 31.25 23.4456 31.2365 24.6428 31.1824C25.8401 31.1284 26.6593 30.9347 27.3749 30.66C28.113 30.3718 28.7432 29.989 29.3643 29.363C29.9854 28.737 30.377 28.111 30.6606 27.3724C30.9396 26.6563 31.1286 25.8367 31.1827 24.6387C31.2367 23.4362 31.2502 23.0534 31.2502 20C31.2502 16.9466 31.2412 16.5592 31.1872 15.3613ZM29.1663 24.5486C29.1167 25.6475 28.9322 26.2465 28.7792 26.6383C28.5766 27.1607 28.3291 27.539 27.933 27.9353C27.5369 28.3317 27.1634 28.5704 26.6367 28.782C26.2407 28.9351 25.642 29.1198 24.5483 29.1693C23.3646 29.2234 23.009 29.2369 20.0024 29.2369C16.9958 29.2369 16.6402 29.2234 15.4565 29.1693C14.3583 29.1198 13.7597 28.9351 13.3681 28.782C12.846 28.5794 12.4679 28.3317 12.0718 27.9353C11.6758 27.539 11.4372 27.1652 11.2257 26.6383C11.0726 26.242 10.8881 25.643 10.8386 24.5486C10.7846 23.3642 10.7711 23.0084 10.7711 20C10.7711 16.9916 10.7846 16.6358 10.8386 15.4514C10.8881 14.3525 11.0726 13.7535 11.2257 13.3617C11.4282 12.8393 11.6758 12.461 12.0718 12.0647C12.4679 11.6683 12.8415 11.4296 13.3681 11.218C13.7642 11.0649 14.3628 10.8802 15.4565 10.8307C16.6402 10.7766 16.9958 10.7631 20.0024 10.7631C23.009 10.7631 23.3646 10.7766 24.5483 10.8307C25.6465 10.8802 26.2452 11.0649 26.6367 11.218C27.1589 11.4206 27.5369 11.6683 27.933 12.0647C28.3291 12.461 28.5676 12.8348 28.7792 13.3617C28.9322 13.758 29.1167 14.357 29.1663 15.4514C29.2203 16.6358 29.2338 16.9916 29.2338 20C29.2338 23.0084 29.2158 23.3642 29.1663 24.5486Z" fill="white"/>
<path d="M20.0018 14.2168C16.8062 14.2168 14.2227 16.8064 14.2227 19.9994C14.2227 23.197 16.8107 25.7821 20.0018 25.7821C23.193 25.7821 25.781 23.188 25.781 19.9994C25.781 16.8019 23.1975 14.2168 20.0018 14.2168ZM20.0018 23.7509C17.9314 23.7509 16.2526 22.0711 16.2526 19.9994C16.2526 17.9278 17.9314 16.2479 20.0018 16.2479C22.0722 16.2479 23.7511 17.9278 23.7511 19.9994C23.7511 22.0711 22.0722 23.7509 20.0018 23.7509Z" fill="white"/>
<path d="M26.0065 15.3428C26.7523 15.3428 27.3568 14.7379 27.3568 13.9917C27.3568 13.2455 26.7523 12.6406 26.0065 12.6406C25.2608 12.6406 24.6562 13.2455 24.6562 13.9917C24.6562 14.7379 25.2608 15.3428 26.0065 15.3428Z" fill="white"/>
<path d="M8.75 20C8.75 23.0579 8.7635 23.4408 8.81751 24.6387C8.87152 25.8367 9.06506 26.6563 9.33962 27.3724C9.62768 28.111 10.0103 28.7415 10.6359 29.363C11.257 29.9845 11.8871 30.3763 12.6253 30.66C13.3409 30.9393 14.1601 31.1284 15.3573 31.1824C16.5591 31.2365 16.9416 31.25 19.9932 31.25C23.0494 31.25 23.4319 31.2365 24.6292 31.1824C25.8264 31.1284 26.6456 30.9347 27.3612 30.66C28.0994 30.3718 28.7295 29.989 29.3506 29.363C29.9717 28.7415 30.3633 28.111 30.6469 27.3724C30.9259 26.6563 31.115 25.8367 31.169 24.6387C31.223 23.4362 31.2365 23.0534 31.2365 20C31.2365 16.9421 31.223 16.5592 31.169 15.3613C31.115 14.1633 30.9214 13.3437 30.6469 12.6276C30.3588 11.889 29.9762 11.2585 29.3506 10.637C28.734 10.011 28.1039 9.6237 27.3657 9.33997C26.6501 9.06075 25.8309 8.8716 24.6337 8.81755C23.4319 8.76351 23.0494 8.75 19.9977 8.75C16.9416 8.75 16.5591 8.76351 15.3618 8.81755C14.1646 8.8716 13.3454 9.06525 12.6298 9.33997C11.8916 9.6282 11.2615 10.011 10.6404 10.637C10.0193 11.263 9.62768 11.889 9.34412 12.6276C9.06506 13.3437 8.87152 14.1633 8.81751 15.3613C8.7635 16.5592 8.75 16.9421 8.75 20ZM10.7799 20C10.7799 16.9961 10.7934 16.6358 10.8474 15.4514C10.8969 14.3525 11.0815 13.7535 11.2345 13.3617C11.437 12.8393 11.6846 12.461 12.0807 12.0647C12.4767 11.6683 12.8503 11.4296 13.3769 11.218C13.773 11.0649 14.3716 10.8802 15.4653 10.8307C16.6491 10.7766 17.0047 10.7631 20.0113 10.7631C23.0179 10.7631 23.3734 10.7766 24.5572 10.8307C25.6554 10.8802 26.254 11.0649 26.6456 11.218C27.1677 11.4206 27.5458 11.6683 27.9418 12.0647C28.3379 12.461 28.5765 12.8348 28.788 13.3617C28.941 13.758 29.1256 14.357 29.1751 15.4514C29.2291 16.6358 29.2426 16.9916 29.2426 20C29.2426 23.0084 29.2291 23.3642 29.1751 24.5486C29.1256 25.6475 28.941 26.2465 28.788 26.6383C28.5855 27.1607 28.3379 27.539 27.9418 27.9353C27.5458 28.3317 27.1722 28.5704 26.6456 28.782C26.2495 28.9351 25.6509 29.1198 24.5572 29.1693C23.3734 29.2234 23.0179 29.2369 20.0113 29.2369C17.0047 29.2369 16.6491 29.2234 15.4653 29.1693C14.3671 29.1198 13.7685 28.9351 13.3769 28.782C12.8548 28.5794 12.4767 28.3317 12.0807 27.9353C11.6846 27.539 11.446 27.1652 11.2345 26.6383C11.0815 26.242 10.8969 25.643 10.8474 24.5486C10.7889 23.3642 10.7799 23.0039 10.7799 20Z" fill="white"/>
</svg>
