<svg width="80" height="56" viewBox="0 0 80 56" fill="none" xmlns="http://www.w3.org/2000/svg">
<path d="M11.3269 43.9993V16.2286H0.437333V13.1673H25.8027V16.2286H14.9568V43.9993H11.3269ZM30.285 43.9993V13.1673H33.9149V27.1619H34.0023L48.7842 13.1673H53.4199L36.4077 29.0862L36.4514 27.2494L54.6445 43.9993H49.8775L34.0023 29.4798H33.9149V43.9993H30.285Z" fill="white"/>
<path d="M60 12.507L75.416 12.507L75.416 22.9812L72.7701 22.9812L72.7701 15.9182L69.0091 15.9182L69.0091 22.4782L66.3851 22.4782L66.3851 15.9182L60 15.9182L60 12.507ZM60 26.898L75.416 26.898L75.416 30.3092L60 30.3092L60 26.898ZM60 38.746L72.6389 38.746L72.6389 33.8479L75.416 33.8479L75.416 47.0553L72.6389 47.0553L72.6389 42.1572L60 42.1572L60 38.746Z" fill="white"/>
</svg>
