<svg width="102" height="68" viewBox="0 0 102 68" fill="none" xmlns="http://www.w3.org/2000/svg">
<path d="M14.0896 55V20.456H0.544V16.648H32.096V20.456H18.6048V55H14.0896ZM37.6184 55V16.648H42.1336V34.056H42.2424L60.6297 16.648H66.3961L45.2345 36.4496L45.2889 34.1648L67.9193 55H61.9897L42.2424 36.9392H42.1336V55H37.6184Z" fill="black"/>
<path d="M75 15.558L94.176 15.558L94.176 28.5868L90.8848 28.5868L90.8848 19.8012L86.2064 19.8012L86.2064 27.9612L82.9424 27.9612L82.9424 19.8012L75 19.8012L75 15.558ZM75 33.459L94.176 33.459L94.176 37.7022L75 37.7022L75 33.459ZM75 48.1967L90.7216 48.1967L90.7216 42.1039L94.176 42.1039L94.176 58.5327L90.7216 58.5327L90.7216 52.4399L75 52.4399L75 48.1967Z" fill="black"/>
</svg>
