<svg width="152" height="152" viewBox="0 0 152 152" fill="none" xmlns="http://www.w3.org/2000/svg">
<rect x="1.49712" y="8.98267" width="10.5862" height="10.5862" transform="rotate(-45 1.49712 8.98267)" stroke="#6D7D8B" stroke-width="2.11724"/>
<rect x="1.49712" y="61.8506" width="10.5862" height="10.5862" transform="rotate(-45 1.49712 61.8506)" stroke="#6D7D8B" stroke-width="2.11724"/>
<rect x="1.49712" y="114.72" width="10.5862" height="10.5862" transform="rotate(-45 1.49712 114.72)" stroke="#6D7D8B" stroke-width="2.11724"/>
<rect x="1.49712" y="35.416" width="10.5862" height="10.5862" transform="rotate(-45 1.49712 35.416)" stroke="#6D7D8B" stroke-width="2.11724"/>
<rect x="1.49712" y="88.2864" width="10.5862" height="10.5862" transform="rotate(-45 1.49712 88.2864)" stroke="#6D7D8B" stroke-width="2.11724"/>
<rect x="1.49712" y="141.154" width="10.5862" height="10.5862" transform="rotate(-45 1.49712 141.154)" stroke="#6D7D8B" stroke-width="2.11724"/>
<rect x="107.235" y="8.98267" width="10.5862" height="10.5862" transform="rotate(-45 107.235 8.98267)" stroke="#6D7D8B" stroke-width="2.11724"/>
<rect x="107.235" y="61.8506" width="10.5862" height="10.5862" transform="rotate(-45 107.235 61.8506)" stroke="#6D7D8B" stroke-width="2.11724"/>
<rect x="107.235" y="114.72" width="10.5862" height="10.5862" transform="rotate(-45 107.235 114.72)" stroke="#6D7D8B" stroke-width="2.11724"/>
<rect x="107.235" y="35.416" width="10.5862" height="10.5862" transform="rotate(-45 107.235 35.416)" stroke="#6D7D8B" stroke-width="2.11724"/>
<rect x="107.235" y="88.2864" width="10.5862" height="10.5862" transform="rotate(-45 107.235 88.2864)" stroke="#6D7D8B" stroke-width="2.11724"/>
<rect x="107.235" y="141.154" width="10.5862" height="10.5862" transform="rotate(-45 107.235 141.154)" stroke="#6D7D8B" stroke-width="2.11724"/>
<rect x="54.3663" y="8.98267" width="10.5862" height="10.5862" transform="rotate(-45 54.3663 8.98267)" stroke="#6D7D8B" stroke-width="2.11724"/>
<rect x="54.3663" y="61.8506" width="10.5862" height="10.5862" transform="rotate(-45 54.3663 61.8506)" stroke="#6D7D8B" stroke-width="2.11724"/>
<rect x="54.3663" y="114.72" width="10.5862" height="10.5862" transform="rotate(-45 54.3663 114.72)" stroke="#6D7D8B" stroke-width="2.11724"/>
<rect x="54.3663" y="35.416" width="10.5862" height="10.5862" transform="rotate(-45 54.3663 35.416)" stroke="#6D7D8B" stroke-width="2.11724"/>
<rect x="54.3663" y="88.2864" width="10.5862" height="10.5862" transform="rotate(-45 54.3663 88.2864)" stroke="#6D7D8B" stroke-width="2.11724"/>
<rect x="54.3663" y="141.154" width="10.5862" height="10.5862" transform="rotate(-45 54.3663 141.154)" stroke="#6D7D8B" stroke-width="2.11724"/>
<rect x="27.9294" y="8.98267" width="10.5862" height="10.5862" transform="rotate(-45 27.9294 8.98267)" stroke="#6D7D8B" stroke-width="2.11724"/>
<rect x="27.9294" y="61.8506" width="10.5862" height="10.5862" transform="rotate(-45 27.9294 61.8506)" stroke="#6D7D8B" stroke-width="2.11724"/>
<rect x="27.9294" y="114.72" width="10.5862" height="10.5862" transform="rotate(-45 27.9294 114.72)" stroke="#6D7D8B" stroke-width="2.11724"/>
<rect x="27.9294" y="35.416" width="10.5862" height="10.5862" transform="rotate(-45 27.9294 35.416)" stroke="#6D7D8B" stroke-width="2.11724"/>
<rect x="27.9294" y="88.2864" width="10.5862" height="10.5862" transform="rotate(-45 27.9294 88.2864)" stroke="#6D7D8B" stroke-width="2.11724"/>
<rect x="27.9294" y="141.154" width="10.5862" height="10.5862" transform="rotate(-45 27.9294 141.154)" stroke="#6D7D8B" stroke-width="2.11724"/>
<rect x="133.668" y="8.98267" width="10.5862" height="10.5862" transform="rotate(-45 133.668 8.98267)" stroke="#6D7D8B" stroke-width="2.11724"/>
<rect x="133.668" y="61.8506" width="10.5862" height="10.5862" transform="rotate(-45 133.668 61.8506)" stroke="#6D7D8B" stroke-width="2.11724"/>
<rect x="133.668" y="114.72" width="10.5862" height="10.5862" transform="rotate(-45 133.668 114.72)" stroke="#6D7D8B" stroke-width="2.11724"/>
<rect x="133.668" y="35.416" width="10.5862" height="10.5862" transform="rotate(-45 133.668 35.416)" stroke="#6D7D8B" stroke-width="2.11724"/>
<rect x="133.668" y="88.2864" width="10.5862" height="10.5862" transform="rotate(-45 133.668 88.2864)" stroke="#6D7D8B" stroke-width="2.11724"/>
<rect x="133.668" y="141.154" width="10.5862" height="10.5862" transform="rotate(-45 133.668 141.154)" stroke="#6D7D8B" stroke-width="2.11724"/>
<rect x="80.7985" y="8.98267" width="10.5862" height="10.5862" transform="rotate(-45 80.7985 8.98267)" stroke="#6D7D8B" stroke-width="2.11724"/>
<rect x="80.7985" y="61.8506" width="10.5862" height="10.5862" transform="rotate(-45 80.7985 61.8506)" stroke="#6D7D8B" stroke-width="2.11724"/>
<rect x="80.7985" y="114.72" width="10.5862" height="10.5862" transform="rotate(-45 80.7985 114.72)" stroke="#6D7D8B" stroke-width="2.11724"/>
<rect x="80.7985" y="35.416" width="10.5862" height="10.5862" transform="rotate(-45 80.7985 35.416)" stroke="#6D7D8B" stroke-width="2.11724"/>
<rect x="80.7985" y="88.2864" width="10.5862" height="10.5862" transform="rotate(-45 80.7985 88.2864)" stroke="#6D7D8B" stroke-width="2.11724"/>
<rect x="80.7985" y="141.154" width="10.5862" height="10.5862" transform="rotate(-45 80.7985 141.154)" stroke="#6D7D8B" stroke-width="2.11724"/>
</svg>
