<svg width="40" height="40" viewBox="0 0 40 40" fill="none" xmlns="http://www.w3.org/2000/svg">
<rect width="40" height="40" rx="20" fill="black"/>
<path fill-rule="evenodd" clip-rule="evenodd" d="M9.05368 19.7899C14.8841 17.2497 18.7719 15.575 20.7172 14.7659C26.2715 12.4557 27.4256 12.0544 28.1778 12.0412C28.3433 12.0382 28.7132 12.0792 28.9528 12.2737C29.1551 12.4379 29.2108 12.6596 29.2375 12.8153C29.2641 12.971 29.2973 13.3256 29.2709 13.6026C28.9699 16.7651 27.6676 24.4396 27.005 27.9816C26.7246 29.4804 26.1726 29.9829 25.6382 30.0321C24.4767 30.139 23.5948 29.2645 22.4699 28.5271C20.7096 27.3733 19.7152 26.655 18.0066 25.529C16.0319 24.2278 17.312 23.5126 18.4373 22.3437C18.7318 22.0379 23.8492 17.3833 23.9482 16.961C23.9606 16.9082 23.9721 16.7114 23.8551 16.6074C23.7382 16.5035 23.5656 16.539 23.4411 16.5673C23.2645 16.6074 20.4525 18.466 15.0049 22.1433C14.2067 22.6914 13.4838 22.9584 12.836 22.9444C12.1219 22.929 10.7483 22.5406 9.72709 22.2087C8.47459 21.8016 7.47913 21.5863 7.56581 20.8949C7.61096 20.5347 8.10692 20.1664 9.05368 19.7899Z" fill="white"/>
</svg>
